<?xml version="1.0" encoding="utf-8"?>
<!-- Generator: Adobe Illustrator 23.0.3, SVG Export Plug-In . SVG Version: 6.00 Build 0)  -->
<svg version="1.1" id="Layer_1" xmlns="http://www.w3.org/2000/svg" xmlns:xlink="http://www.w3.org/1999/xlink" x="0px" y="0px"
	 viewBox="0 0 148.82 28.26" style="enable-background:new 0 0 148.82 28.26;" xml:space="preserve">
<style type="text/css">
	.st0{fill:#0099E3;}
	.st1{fill:#999999;}
</style>
<polygon class="st0" points="17.31,26.18 0,4.53 28.9,4.54 25.23,9.01 9.39,9.01 23.25,26.18 "/>
<polygon class="st1" points="9.39,9.01 23.25,26.18 41.29,3.59 38.51,0 23.1,18.92 15.26,9.01 "/>
<g>
	<path class="st1" d="M46.26,14.94h-0.83l-1.34-6.58h1l0.75,4.6h0.02l0.76-4.6h1L46.26,14.94z"/>
	<path class="st1" d="M49.49,8.35h0.94v6.58h-0.94V8.35z"/>
	<path class="st1" d="M55.63,13.47c0,0.81-0.66,1.53-1.5,1.53c-0.72,0-1.55-0.35-1.55-1.55V9.81c0-0.86,0.62-1.52,1.54-1.52
		c0.87,0,1.52,0.66,1.52,1.57v0.37h-0.94V9.92c0-0.37-0.22-0.68-0.58-0.68c-0.47,0-0.58,0.32-0.58,0.77v3.37
		c0,0.38,0.15,0.67,0.57,0.67c0.26,0,0.59-0.15,0.59-0.67v-0.32h0.94V13.47z"/>
	<path class="st1" d="M58.31,9.24h-1.09V8.35h3.13v0.89h-1.09v5.7h-0.94V9.24z"/>
	<path class="st1" d="M61.99,9.91c0-1.07,0.81-1.61,1.58-1.61s1.58,0.54,1.58,1.61v3.48c0,1.07-0.81,1.61-1.58,1.61
		s-1.58-0.54-1.58-1.61V9.91z M62.94,13.38c0,0.45,0.3,0.67,0.64,0.67c0.34,0,0.64-0.21,0.64-0.67V9.91c0-0.45-0.3-0.67-0.64-0.67
		c-0.34,0-0.64,0.21-0.64,0.67V13.38z"/>
	<path class="st1" d="M67.28,8.35h1.52c1.12,0,1.66,0.66,1.66,1.93c0,0.76-0.21,1.31-0.81,1.65l1.02,3h-1l-0.88-2.81h-0.56v2.81
		h-0.94V8.35z M68.22,11.29h0.54c0.66,0,0.76-0.37,0.76-1.03c0-0.66-0.11-1.03-0.8-1.03h-0.49V11.29z"/>
	<path class="st1" d="M72.53,8.35h0.94v6.58h-0.94V8.35z"/>
	<path class="st1" d="M76.73,8.35h0.79l1.47,6.58h-0.94l-0.28-1.41h-1.29l-0.28,1.41h-0.94L76.73,8.35z M77.12,10.25h-0.02
		l-0.46,2.39h0.94L77.12,10.25z"/>
	<path class="st1" d="M80.7,8.35h0.91l1.42,3.97h0.02V8.35h0.94v6.58H83.1l-1.44-3.96h-0.02v3.96H80.7V8.35z"/>
	<path class="st1" d="M91.96,13.47c0,0.81-0.66,1.53-1.5,1.53c-0.72,0-1.55-0.35-1.55-1.55V9.81c0-0.86,0.62-1.52,1.53-1.52
		c0.87,0,1.52,0.66,1.52,1.57v0.37h-0.94V9.92c0-0.37-0.22-0.68-0.58-0.68c-0.47,0-0.58,0.32-0.58,0.77v3.37
		c0,0.38,0.15,0.67,0.57,0.67c0.26,0,0.59-0.15,0.59-0.67v-0.32h0.94V13.47z"/>
	<path class="st1" d="M97.07,13.46c0,0.86-0.68,1.54-1.53,1.54c-0.84,0-1.53-0.67-1.53-1.54v-5.1h0.94v5.01
		c0,0.46,0.25,0.68,0.58,0.68c0.33,0,0.58-0.22,0.58-0.68V8.35h0.94V13.46z"/>
	<path class="st1" d="M99.25,8.35h1.52c1.12,0,1.67,0.66,1.67,1.93c0,0.76-0.21,1.31-0.81,1.65l1.02,3h-1l-0.88-2.81h-0.56v2.81
		h-0.94V8.35z M100.19,11.29h0.54c0.66,0,0.76-0.37,0.76-1.03c0-0.66-0.11-1.03-0.8-1.03h-0.49V11.29z"/>
	<path class="st1" d="M104.48,8.35h1.52c1.12,0,1.67,0.66,1.67,1.93c0,0.76-0.21,1.31-0.81,1.65l1.02,3h-1l-0.88-2.81h-0.56v2.81
		h-0.94V8.35z M105.42,11.29h0.54c0.66,0,0.76-0.37,0.76-1.03c0-0.66-0.11-1.03-0.8-1.03h-0.49V11.29z"/>
	<path class="st1" d="M109.73,8.35h0.94v6.58h-0.94V8.35z"/>
	<path class="st1" d="M115.88,13.47c0,0.81-0.66,1.53-1.5,1.53c-0.72,0-1.55-0.35-1.55-1.55V9.81c0-0.86,0.62-1.52,1.54-1.52
		c0.87,0,1.52,0.66,1.52,1.57v0.37h-0.94V9.92c0-0.37-0.22-0.68-0.58-0.68c-0.47,0-0.58,0.32-0.58,0.77v3.37
		c0,0.38,0.15,0.67,0.57,0.67c0.26,0,0.59-0.15,0.59-0.67v-0.32h0.94V13.47z"/>
	<path class="st1" d="M120.98,13.46c0,0.86-0.68,1.54-1.53,1.54c-0.84,0-1.53-0.67-1.53-1.54v-5.1h0.94v5.01
		c0,0.46,0.25,0.68,0.58,0.68s0.58-0.22,0.58-0.68V8.35h0.94V13.46z"/>
	<path class="st1" d="M123.16,8.35h0.94v5.64h1.87v0.94h-2.81V8.35z"/>
	<path class="st1" d="M130.92,13.46c0,0.86-0.68,1.54-1.53,1.54c-0.84,0-1.53-0.67-1.53-1.54v-5.1h0.94v5.01
		c0,0.46,0.25,0.68,0.58,0.68c0.33,0,0.58-0.22,0.58-0.68V8.35h0.94V13.46z"/>
	<path class="st1" d="M133.1,8.35h0.91l1.21,3.49h0.02l1.2-3.49h0.92v6.58h-0.94v-4h-0.02l-0.93,2.83h-0.47l-0.92-2.83h-0.02v4
		h-0.94V8.35z"/>
</g>
<g>
	<path class="st1" d="M35.48,19.37h0.79l1.47,6.58h-0.94l-0.28-1.41h-1.29l-0.28,1.41h-0.94L35.48,19.37z M35.88,21.26h-0.02
		l-0.46,2.39h0.94L35.88,21.26z"/>
	<path class="st1" d="M39.45,19.37h0.91l1.42,3.97h0.02v-3.97h0.94v6.58h-0.89l-1.44-3.96h-0.02v3.96h-0.94V19.37z"/>
	<path class="st1" d="M44.88,19.37h1.4c1.06,0,1.65,0.64,1.65,1.7v3.08c0,1.22-0.63,1.8-1.74,1.8h-1.31V19.37z M45.82,25.06h0.43
		c0.53,0,0.73-0.26,0.73-0.82v-3.17c0-0.52-0.18-0.81-0.73-0.81h-0.43V25.06z"/>
	<path class="st1" d="M53.99,19.37h0.79l1.47,6.58H55.3l-0.28-1.41h-1.29l-0.28,1.41h-0.94L53.99,19.37z M54.39,21.26h-0.02
		l-0.46,2.39h0.94L54.39,21.26z"/>
	<path class="st1" d="M61.05,21.26h-0.94v-0.21c0-0.43-0.19-0.8-0.67-0.8c-0.52,0-0.64,0.42-0.64,0.85c0,0.51,0.05,0.68,0.54,0.88
		l0.72,0.29c0.83,0.31,0.99,0.84,0.99,1.8c0,1.11-0.41,1.93-1.63,1.93c-0.92,0-1.61-0.67-1.61-1.56v-0.35h0.94v0.3
		c0,0.34,0.19,0.67,0.67,0.67c0.64,0,0.68-0.38,0.68-0.98c0-0.7-0.08-0.81-0.55-1l-0.67-0.28c-0.81-0.33-1.03-0.87-1.03-1.69
		c0-1,0.54-1.8,1.62-1.8c0.94,0,1.57,0.76,1.57,1.49V21.26z"/>
	<path class="st1" d="M66.09,21.26h-0.94v-0.21c0-0.43-0.18-0.8-0.67-0.8c-0.52,0-0.64,0.42-0.64,0.85c0,0.51,0.05,0.68,0.54,0.88
		l0.72,0.29c0.83,0.31,0.99,0.84,0.99,1.8c0,1.11-0.41,1.93-1.63,1.93c-0.92,0-1.61-0.67-1.61-1.56v-0.35h0.94v0.3
		c0,0.34,0.19,0.67,0.67,0.67c0.64,0,0.68-0.38,0.68-0.98c0-0.7-0.08-0.81-0.55-1l-0.67-0.28c-0.81-0.33-1.03-0.87-1.03-1.69
		c0-1,0.54-1.8,1.62-1.8c0.94,0,1.57,0.76,1.57,1.49V21.26z"/>
	<path class="st1" d="M68.08,19.37h2.81v0.89h-1.87v1.93h1.63v0.89h-1.63v1.93h1.87v0.94h-2.81V19.37z"/>
	<path class="st1" d="M75.85,21.26H74.9v-0.21c0-0.43-0.18-0.8-0.67-0.8c-0.52,0-0.64,0.42-0.64,0.85c0,0.51,0.05,0.68,0.54,0.88
		l0.72,0.29c0.83,0.31,0.99,0.84,0.99,1.8c0,1.11-0.41,1.93-1.63,1.93c-0.92,0-1.61-0.67-1.61-1.56v-0.35h0.94v0.3
		c0,0.34,0.19,0.67,0.67,0.67c0.64,0,0.68-0.38,0.68-0.98c0-0.7-0.08-0.81-0.55-1l-0.67-0.28c-0.81-0.33-1.03-0.87-1.03-1.69
		c0-1,0.54-1.8,1.62-1.8c0.94,0,1.57,0.76,1.57,1.49V21.26z"/>
	<path class="st1" d="M80.89,21.26h-0.94v-0.21c0-0.43-0.18-0.8-0.67-0.8c-0.52,0-0.64,0.42-0.64,0.85c0,0.51,0.05,0.68,0.54,0.88
		l0.72,0.29c0.83,0.31,0.99,0.84,0.99,1.8c0,1.11-0.41,1.93-1.63,1.93c-0.92,0-1.61-0.67-1.61-1.56v-0.35h0.94v0.3
		c0,0.34,0.18,0.67,0.67,0.67c0.64,0,0.68-0.38,0.68-0.98c0-0.7-0.08-0.81-0.54-1l-0.68-0.28c-0.81-0.33-1.03-0.87-1.03-1.69
		c0-1,0.54-1.8,1.62-1.8c0.94,0,1.57,0.76,1.57,1.49V21.26z"/>
	<path class="st1" d="M82.88,19.37h0.91L85,22.85h0.02l1.2-3.49h0.92v6.58h-0.94v-4h-0.02l-0.93,2.83h-0.47l-0.92-2.83h-0.02v4
		h-0.94V19.37z"/>
	<path class="st1" d="M89.31,19.37h2.81v0.89h-1.87v1.93h1.63v0.89h-1.63v1.93h1.87v0.94h-2.81V19.37z"/>
	<path class="st1" d="M93.99,19.37h0.91l1.42,3.97h0.02v-3.97h0.94v6.58h-0.89l-1.44-3.96h-0.02v3.96h-0.94V19.37z"/>
	<path class="st1" d="M100.04,20.25h-1.09v-0.89h3.12v0.89h-1.09v5.7h-0.94V20.25z"/>
	<path class="st1" d="M107.66,19.37h0.79l1.47,6.58h-0.94l-0.28-1.41h-1.29l-0.28,1.41h-0.94L107.66,19.37z M108.06,21.26h-0.02
		l-0.46,2.39h0.94L108.06,21.26z"/>
	<path class="st1" d="M114.72,24.47c0,0.86-0.68,1.54-1.53,1.54s-1.53-0.67-1.53-1.54v-5.1h0.94v5.01c0,0.46,0.25,0.68,0.58,0.68
		s0.58-0.22,0.58-0.68v-5.01h0.94V24.47z"/>
	<path class="st1" d="M117.52,20.25h-1.09v-0.89h3.12v0.89h-1.09v5.7h-0.94V20.25z"/>
	<path class="st1" d="M121.26,19.37h0.94v2.82h1.17v-2.82h0.94v6.58h-0.94v-2.93h-1.17v2.93h-0.94V19.37z"/>
	<path class="st1" d="M126.43,20.92c0-1.07,0.81-1.61,1.58-1.61c0.77,0,1.58,0.54,1.58,1.61v3.48c0,1.07-0.81,1.61-1.58,1.61
		c-0.77,0-1.58-0.54-1.58-1.61V20.92z M127.37,24.4c0,0.45,0.3,0.67,0.64,0.67c0.34,0,0.64-0.21,0.64-0.67v-3.48
		c0-0.45-0.3-0.67-0.64-0.67c-0.34,0-0.64,0.21-0.64,0.67V24.4z"/>
	<path class="st1" d="M131.71,19.37h1.52c1.12,0,1.67,0.66,1.67,1.93c0,0.76-0.21,1.31-0.81,1.65l1.02,3h-1l-0.88-2.81h-0.56v2.81
		h-0.94V19.37z M132.66,22.31h0.54c0.66,0,0.76-0.37,0.76-1.03c0-0.67-0.11-1.03-0.8-1.03h-0.49V22.31z"/>
	<path class="st1" d="M136.97,19.37h0.94v6.58h-0.94V19.37z"/>
	<path class="st1" d="M140.74,20.25h-1.09v-0.89h3.12v0.89h-1.09v5.7h-0.94V20.25z"/>
	<path class="st1" d="M145.35,23.17l-1.29-3.8h1l0.76,2.62h0.02l0.76-2.62h1l-1.29,3.8v2.78h-0.94V23.17z"/>
</g>
</svg>
