<?xml version="1.0" encoding="utf-8"?>
<!-- Generator: Adobe Illustrator 23.0.3, SVG Export Plug-In . SVG Version: 6.00 Build 0)  -->
<svg version="1.1" xmlns="http://www.w3.org/2000/svg" xmlns:xlink="http://www.w3.org/1999/xlink" x="0px" y="0px"
	 viewBox="0 0 1190.55 841.89" style="enable-background:new 0 0 1190.55 841.89;" xml:space="preserve">
<style type="text/css">
	.st0{fill:#004C97;}
</style>
<g id="Layer_1">
</g>
<g id="Layer_2">
	<g>
		<line class="st0" x1="567.34" y1="455.99" x2="590.18" y2="455.99"/>
		<path class="st0" d="M663.07,370.98c-24.97,0-45.01,18.73-45.01,43.45s20.04,43.45,45.01,43.45c24.97,0,45.01-18.73,45.01-43.45
			S688.04,370.98,663.07,370.98z M663.07,435.26c-11.53,0-21.05-9.42-21.05-20.84c0-11.42,9.52-20.84,21.05-20.84
			s21.05,9.42,21.05,20.84C684.12,425.84,674.6,435.26,663.07,435.26z"/>
		<path class="st0" d="M789.22,403.12c0-17.4-14-30.26-31.69-30.26h-38.18v83.13h22.84v-22.61h10.75l10.41,22.61H789l-14.22-27.93
			C782.84,422.52,789.22,414.32,789.22,403.12z M757.54,412.87H742.2v-19.62h15.34c5.15,0,8.51,5.77,8.51,9.86
			C766.05,407.22,762.69,412.87,757.54,412.87z"/>
		<rect x="803.09" y="372.86" class="st0" width="22.84" height="83.13"/>
		<path class="st0" d="M881.96,372.85h-8.57l-38.51,83.13h24.49l4.02-9.42h28.58l4.02,9.42h24.49L881.96,372.85z M870.35,426.83
			l7.08-16.18h0.47l7.08,16.18H870.35z"/>
		<path class="st0" d="M557.84,372.86l53.7-115.89H270.02l54.05,116.64h25.2l20.68,44.62l20.68-44.62h25.25l-37.83,81.65H361.9
			l78.88,170.22l80.7-174.14c-6.26,3.62-13.52,5.7-21.27,5.7c-24.38,0-43.76-18.4-43.76-42.68c0-24.28,19.37-42.68,43.76-42.68
			c15.57,0,29.17,8.39,36.57,20.79l-19.05,11.43c-3.59-5.87-10.12-10.02-17.53-10.02c-11.32,0-20.46,9.26-20.46,20.47
			c0,11.21,9.14,20.47,20.46,20.47c7.4,0,13.93-4.03,17.53-10.02l12.55,7.53l18.11-39.09h18.94v62.73h22.84v-62.73h22.95v-20.39
			H557.84z M446.06,455.26h-23.32v-81.65h23.32V455.26z"/>
		<line class="st0" x1="567.34" y1="455.99" x2="590.18" y2="455.99"/>
		<g>
			<g>
				<path class="st0" d="M593.44,500.41c-3.27-2.02-7.25-3.53-11.79-3.53c-4.66,0-7.96,1.84-7.96,4.99c0,3.06,3.59,3.98,8.58,4.81
					l2.34,0.39c7.43,1.22,13.25,4.39,13.25,11.64c0,9.18-8.08,13.54-17.02,13.54c-6.3,0-13.07-1.84-17.52-5.44l4.31-6.68
					c3,2.4,7.9,4.48,13.24,4.48c4.6,0,8.17-1.81,8.17-5.02c0-2.88-3.03-3.95-8.82-4.87l-2.64-0.41c-7.34-1.16-12.68-4.4-12.68-11.91
					c0-8.67,7.72-13.18,16.57-13.18c5.82,0,10.66,1.3,15.89,4.42L593.44,500.41z"/>
				<path class="st0" d="M623.87,509.62h-10.42v10.52c0,3.59,1.9,4.9,4.31,4.9c1.84,0,3.83-0.92,5.4-1.87l2.85,6.06
					c-2.53,1.72-5.44,3.03-9.54,3.03c-7.13,0-10.78-4.04-10.78-11.49v-11.14h-5.55v-6.89h5.55v-8.56h7.75v8.56h10.42V509.62z"/>
				<path class="st0" d="M635.3,517.11c0,4.39,2.88,7.93,7.43,7.93c4.42,0,7.42-3.38,7.42-7.93c0-4.54-3-7.93-7.42-7.93
					C638.18,509.18,635.3,512.71,635.3,517.11 M657.49,531.51h-7.57v-3.18c-1.87,2.32-4.66,3.92-8.61,3.92
					c-7.93,0-13.93-6.5-13.93-15.15c0-8.64,6-15.15,13.93-15.15c3.95,0,6.71,1.6,8.61,3.95v-3.17h7.57V531.51z"/>
				<path class="st0" d="M685.31,509.62h-10.42v10.52c0,3.59,1.9,4.9,4.31,4.9c1.84,0,3.83-0.92,5.4-1.87l2.85,6.06
					c-2.53,1.72-5.44,3.03-9.54,3.03c-7.13,0-10.78-4.04-10.78-11.49v-11.14h-5.55v-6.89h5.55v-8.56h7.75v8.56h10.42V509.62z"/>
				<path class="st0" d="M696.83,514.4h12.74c-0.71-3.68-2.94-5.76-6.27-5.76C699.65,508.64,697.51,510.84,696.83,514.4
					 M717.35,517.08c0,0.89-0.06,1.96-0.15,2.62h-20.4c0.83,4.16,3.74,5.97,7.4,5.97c2.49,0,5.2-1.01,7.27-2.76l4.54,4.99
					c-3.27,3-7.42,4.36-12.27,4.36c-8.82,0-14.94-6-14.94-15.06c0-9.06,5.94-15.24,14.55-15.24
					C711.65,501.96,717.32,508.11,717.35,517.08"/>
				<path class="st0" d="M600.95,549l-5.97,5.85c-2.34-2.71-5.79-4.36-10.04-4.36c-7.6,0-13.13,5.58-13.13,13.69
					c0,8.49,5.79,13.81,12.98,13.81c6.77,0,10.72-3.27,11.82-9.18h-10.57v-6.92h19.13c0.09,0.8,0.12,1.57,0.12,2.35
					c0,12.59-8.52,21.47-20.31,21.47c-11.52,0-21.74-8.11-21.74-21.53c0-12.56,9.18-21.56,21.95-21.56
					C591.77,542.61,597.27,544.99,600.95,549"/>
				<path class="st0" d="M617.1,570.56c0,4.67,3.27,7.93,7.63,7.93c4.37,0,7.66-3.26,7.66-7.93c0-4.66-3.3-7.93-7.66-7.93
					C620.36,562.63,617.1,565.89,617.1,570.56 M640.32,570.56c0,8.67-6.62,15.15-15.59,15.15c-8.94,0-15.53-6.47-15.53-15.15
					c0-8.67,6.59-15.15,15.53-15.15C633.7,555.41,640.32,561.89,640.32,570.56"/>
			</g>
			<polygon class="st0" points="661.4,584.96 652.46,584.96 641.09,556.18 649.52,556.18 656.98,576.79 664.49,556.18 
				672.66,556.18 			"/>
			<g>
				<path class="st0" d="M681.47,567.86h12.74c-0.71-3.68-2.94-5.76-6.27-5.76C684.3,562.09,682.16,564.29,681.47,567.86
					 M702,570.53c0,0.89-0.06,1.96-0.15,2.62h-20.4c0.83,4.16,3.74,5.97,7.4,5.97c2.49,0,5.2-1.01,7.27-2.76l4.54,4.99
					c-3.27,3-7.42,4.36-12.27,4.36c-8.82,0-14.94-6-14.94-15.06c0-9.06,5.94-15.24,14.55-15.24
					C696.29,555.41,701.97,561.56,702,570.53"/>
				<path class="st0" d="M726.79,556.04l-1.16,7.69c-1.28-0.57-3.12-0.92-4.69-0.92c-3.59,0-6.06,2.2-6.06,6.48v15.68h-7.75v-28.78
					h7.51v3.15c1.81-2.7,4.57-3.92,8.11-3.92C724.41,555.41,725.72,555.65,726.79,556.04"/>
				<path class="st0" d="M758.09,566.64v18.33h-7.75v-15.83c0-4.16-2.08-6.44-5.61-6.44c-3.33,0-6.09,2.17-6.09,6.5v15.77h-7.75
					v-28.78h7.54v3.38c2.05-3.06,5.2-4.16,8.46-4.16C753.43,555.41,758.09,559.96,758.09,566.64"/>
				<path class="st0" d="M811.42,566.64v18.33h-7.72v-15.83c0-4.16-2.11-6.44-5.61-6.44c-3.33,0-6.09,2.17-6.09,6.5v15.77h-7.75
					v-15.83c0-4.16-2.08-6.44-5.61-6.44c-3.33,0-6.09,2.17-6.09,6.5v15.77h-7.75v-28.78h7.54v3.38c2.05-3.06,5.2-4.16,8.47-4.16
					c4.16,0,7.57,1.87,9.5,4.93c2.23-3.65,6-4.93,9.77-4.93C806.85,555.41,811.42,559.96,811.42,566.64"/>
				<path class="st0" d="M824.36,567.86h12.74c-0.71-3.68-2.94-5.76-6.27-5.76C827.18,562.09,825.05,564.29,824.36,567.86
					 M844.88,570.53c0,0.89-0.06,1.96-0.15,2.62h-20.4c0.83,4.16,3.74,5.97,7.4,5.97c2.49,0,5.2-1.01,7.27-2.76l4.54,4.99
					c-3.27,3-7.42,4.36-12.27,4.36c-8.82,0-14.94-6-14.94-15.06c0-9.06,5.94-15.24,14.55-15.24
					C839.18,555.41,844.85,561.56,844.88,570.53"/>
				<path class="st0" d="M877.22,566.64v18.33h-7.75v-15.83c0-4.16-2.08-6.44-5.61-6.44c-3.33,0-6.09,2.17-6.09,6.5v15.77h-7.75
					v-28.78h7.54v3.38c2.05-3.06,5.2-4.16,8.46-4.16C872.56,555.41,877.22,559.96,877.22,566.64"/>
				<path class="st0" d="M904.51,563.07h-10.42v10.52c0,3.59,1.9,4.9,4.31,4.9c1.84,0,3.83-0.92,5.41-1.87l2.85,6.06
					c-2.52,1.72-5.43,3.03-9.53,3.03c-7.13,0-10.78-4.04-10.78-11.49v-11.14h-5.55v-6.89h5.55v-8.56h7.75v8.56h10.42V563.07z"/>
			</g>
		</g>
	</g>
</g>
</svg>
